<svg version="1.1"
  xmlns="http://www.w3.org/2000/svg">
    <defs>
      <symbol id="14x14_save" height="14" viewBox="0 0 14 14" width="14">
        <path d="M9 1H5a2 2 0 0 0-2 2v10l4-3 4 3V3a2 2 0 0 0-2-2z"></path>
      </symbol>
      <symbol id="18x18_share" height="18" viewBox="0 0 18 18" width="18">
        <path d="M17.714 6.43L13 10.356v-3.03c-1 0-5.097 1.47-6.286 3.62.274-3.08 4.286-5.5 6.286-5.5V2.5l4.714 3.93zM3 4v10h11v-2.5l1-1V15H2V3h8.5l-1 1H3z"></path>
      </symbol>
      <symbol id="18x18_add_photo" height="18" viewBox="0 0 18 18" width="18">
        <path d="M15 15H3a2 2 0 0 1-2-2V6a2 2 0 0 1 2-2h2a2 2 0 0 1 2-2h4a2 2 0 0 1 2 2h2a2 2 0 0 1 2 2v7a2 2 0 0 1-2 2zM9 4.75a4.25 4.25 0 1 0 0 8.5 4.25 4.25 0 0 0 0-8.5zM11 10h-1v1a1 1 0 0 1-2 0v-1H7a1 1 0 0 1 0-2h1V7a1 1 0 0 1 2 0v1h1a1 1 0 0 1 0 2z"></path>
      </symbol>
      <symbol id="24x24_star" height="24" viewBox="0 0 24 24" width="24">
        <path d="M12 1.5l2.61 6.727 6.89.53-5.278 4.688 1.65 7.055L12 16.67 6.13 20.5l1.648-7.055L2.5 8.757l6.89-.53L12 1.5z"></path>
      </symbol>
      <symbol id="18x18_marker" height="18" viewBox="0 0 18 18" width="18">
        <path d="M14 7A5 5 0 0 0 4 7c0 1.97 1.15 3.658 2.806 4.472h-.17L9 16l2.363-4.528h-.17C12.85 10.658 14 8.97 14 7zM9 5a2 2 0 1 1 0 4 2 2 0 0 1 0-4z"></path>
      </symbol>
      <symbol id="18x18_directions" height="18" viewBox="0 0 18 18" width="18">
        <path d="M16.444 7.556l-5.957-5.958a2.145 2.145 0 0 0-3.034 0L1.598 7.453a2.145 2.145 0 0 0 0 3.034l5.958 5.957a2 2 0 0 0 2.828 0l6.06-6.06a2 2 0 0 0 0-2.828zM9.97 11.47v-2.5h-3v3h-1v-4h4v-2.5l3 3-3 3z"></path>
      </symbol>
      <symbol id="18x18_phone" height="18" viewBox="0 0 18 18" width="18">
        <path d="M15.862 12.526l-2.91-1.68a.442.442 0 0 0-.486.087l-1.58 1.687a.857.857 0 0 1-.52.232s-1.083.03-3.13-1.985c-2.046-2.015-2.054-3.12-2.054-3.12 0-.17.094-.41.21-.533L6.85 5.656a.49.49 0 0 0 .08-.504L5.295 2.14c-.073-.155-.228-.18-.345-.058L2.26 4.924a1.07 1.07 0 0 0-.248.53s-.34 2.927 3.75 6.955c4.093 4.025 6.96 3.59 6.96 3.59.167-.027.4-.148.516-.27l2.684-2.845c.117-.123.09-.285-.062-.36z"></path>
      </symbol>
      <symbol id="18x18_mobile" height="18" viewBox="0 0 18 18" width="18">
        <path d="M12 17H6a2 2 0 0 1-2-2V2C4 .895 5.078-.016 6 0h6a2 2 0 0 1 2 2v13a2 2 0 0 1-2 2zm-3-1a1.5 1.5 0 1 0 0-3 1.5 1.5 0 0 0 0 3zm4-13a1 1 0 0 0-1-1H6a1 1 0 0 0-1 1v8a1 1 0 0 0 1 1h6a1 1 0 0 0 1-1V3z"></path>
      </symbol>
    </defs>
</svg>
